<svg xmlns="http://www.w3.org/2000/svg" viewBox="0 0 256.8 220.83"><title>Asset 3</title><g id="Layer_2" data-name="Layer 2"><g id="Layer_1-2" data-name="Layer 1"><path d="M4.87,48V0H28.48c8.86,0,13.69,5.47,13.69,12.24,0,6-3.89,10.08-8.36,11C39,24.05,43.1,29.16,43.1,35c0,7.48-4.89,13-14,13ZM33.52,13.61c0-3.53-2.44-6.19-6.69-6.19H13.29V19.8H26.83C31.08,19.8,33.52,17.28,33.52,13.61Zm.94,20.31c0-3.61-2.52-6.7-7.27-6.7H13.29V40.61h13.9C31.72,40.61,34.46,38.09,34.46,33.92Z"/><path d="M52,48V0H84.86V7.42H60.38V19.8h24v7.42h-24V40.61H84.86V48Z"/><path d="M105.31,48V7.42H90.76V0h37.52V7.42H113.73V48Z"/><path d="M147.21,48V7.42H132.66V0h37.52V7.42H155.63V48Z"/><path d="M177.66,48V0h32.91V7.42H186.09V19.8h24v7.42h-24V40.61h24.48V48Z"/><path d="M247,48,236.42,30.1H228V48h-8.42V0h21.1c9.5,0,15.77,6.12,15.77,15.05,0,8.5-5.62,13.18-11.45,14.11L256.8,48Zm.79-33c0-4.61-3.45-7.56-8.2-7.56H228V22.68h11.6C244.34,22.68,247.79,19.66,247.79,15Z"/><path d="M14.55,134.43V93.82H0V86.4H37.52v7.42H23v40.61Z"/><path d="M78.41,134.43v-21h-25v21H45v-48h8.42V106h25V86.4h8.43v48Z"/><path d="M131.11,134.43l-3.52-9.29h-22L102,134.43H92.45l18.86-48h10.52l18.86,48Zm-14.54-39.6-8.64,22.89h17.28Z"/><path d="M179.71,134.43l-25.05-34.35v34.35h-8.43v-48h8.64l24.56,33.27V86.4h8.42v48Z"/><path d="M4.29,220.83v-48h8.43v40.61H33.89v7.42Z"/><path d="M41.66,220.83v-48h8.42v48Z"/><path d="M60.67,220.83v-48h32.9v7.42H69.09V192.6h24V200h-24v20.81Z"/><path d="M101.56,220.83v-48h32.91v7.42H110V192.6h24V200H110v13.39h24.48v7.42Z"/></g></g></svg>