<svg id="Layer_1" data-name="Layer 1" xmlns="http://www.w3.org/2000/svg" viewBox="0 0 349.92 347.88"><defs><style>.cls-1{fill:#fff;}</style></defs><title>logo_white</title><path class="cls-1" d="M-95-554.91v-70H-66c12.71,0,20.91,6.84,20.91,17.47a15.53,15.53,0,0,1-12.76,15.24v0.39c9.51,0.92,16.16,7.76,16.16,17,0,12.32-9.07,19.89-24,19.89H-95Zm12.52-40.52h11.45c8.73,0,13.63-3.69,13.63-10.19,0-6.11-4.22-9.56-11.69-9.56H-82.52v19.75Zm14,30.76c9.22,0,14.12-3.83,14.12-11s-5-10.87-14.65-10.87H-82.52v21.88h14Z" transform="translate(98.87 624.93)"/><path class="cls-1" d="M11.42-570.29c-1.55,9.7-10.58,16.4-22.76,16.4-15.43,0-24.75-10.14-24.75-26.54s9.41-27,24.26-27c14.61,0,23.73,10.14,23.73,25.77v3.93h-36V-577c0,8.25,5,13.78,13,13.78,5.63,0,9.9-2.81,11.21-7.08H11.42ZM-24-585.67h24C-0.18-593-4.84-598-11.78-598S-23.47-592.85-24-585.67Z" transform="translate(98.87 624.93)"/><path class="cls-1" d="M35.09-618.38v12h9.7V-597h-9.7v26.74c0,4.22,1.94,6.16,6.21,6.16a23.44,23.44,0,0,0,3.44-.24v9.22a33.23,33.23,0,0,1-6.26.49C27.38-554.67,23-558.6,23-568.59V-597H15.64v-9.32H23v-12H35.09Z" transform="translate(98.87 624.93)"/><path class="cls-1" d="M68.43-618.38v12h9.71V-597H68.43v26.74c0,4.22,1.94,6.16,6.21,6.16a23.44,23.44,0,0,0,3.45-.24v9.22a33.23,33.23,0,0,1-6.26.49c-11.11,0-15.48-3.93-15.48-13.93V-597H49v-9.32h7.38v-12H68.43Z" transform="translate(98.87 624.93)"/><path class="cls-1" d="M130.73-570.29c-1.55,9.7-10.58,16.4-22.76,16.4-15.43,0-24.75-10.14-24.75-26.54s9.41-27,24.26-27c14.61,0,23.73,10.14,23.73,25.77v3.93h-36V-577c0,8.25,5,13.78,13,13.78,5.63,0,9.9-2.81,11.21-7.08h11.31ZM95.35-585.67h24C119.13-593,114.47-598,107.53-598S95.84-592.85,95.35-585.67Z" transform="translate(98.87 624.93)"/><path class="cls-1" d="M139-606.34h11.6v9h0.24c1.75-6.26,6.26-9.85,12.32-9.85a17.19,17.19,0,0,1,3.78.48v10.92a15.34,15.34,0,0,0-4.9-.68c-6.84,0-11,4.42-11,11.65v29.94H139v-51.43Z" transform="translate(98.87 624.93)"/><path class="cls-1" d="M-77.91-455.54V-515h-21v-10.58h54.35V-515H-65.44v59.44H-77.91Z" transform="translate(98.87 624.93)"/><path class="cls-1" d="M-36.86-525.56h11.94v27.42h0.24c2.77-6.26,8.44-9.8,16.26-9.8,11.35,0,18,7.47,18,19.26v33.14H-2.51v-30.67c0-7.18-3.59-11.5-10.58-11.5-7.28,0-11.69,5-11.69,12.62v29.55H-36.86v-70Z" transform="translate(98.87 624.93)"/><path class="cls-1" d="M17.19-470.25c0-9.12,7-14.6,19.55-15.38l13.59-.78v-3.69c0-5.39-3.64-8.49-9.61-8.49-5.73,0-9.36,2.77-10.14,7H19.37c0.53-9.61,8.73-16.5,21.84-16.5C54-508,62.27-501.3,62.27-491v35.42H50.62v-8.2H50.38c-3,5.58-9.41,9-16,9C24.42-454.72,17.19-461,17.19-470.25Zm33.14-4.37v-3.93l-11.89.73c-5.82.39-9.17,3-9.17,7.08s3.49,6.89,8.73,6.89C44.85-463.84,50.33-468.4,50.33-474.61Z" transform="translate(98.87 624.93)"/><path class="cls-1" d="M72-507h11.6v8.83h0.24c2.77-6.11,8.25-9.8,16.16-9.8,11.35,0,17.81,7.28,17.81,19.17v33.24H105.69v-30.81c0-7.28-3.4-11.35-10.29-11.35S84-492.71,84-485.34v29.79H72V-507Z" transform="translate(98.87 624.93)"/><path class="cls-1" d="M-50.74-356.17H-95v-70h12.52v59.44h31.78v10.58Z" transform="translate(98.87 624.93)"/><path class="cls-1" d="M-43.31-421.92a6.56,6.56,0,0,1,6.6-6.55,6.55,6.55,0,0,1,6.65,6.55,6.58,6.58,0,0,1-6.65,6.55A6.6,6.6,0,0,1-43.31-421.92Zm0.63,14.31H-30.6v51.43H-42.68v-51.43Z" transform="translate(98.87 624.93)"/><path class="cls-1" d="M-17.11-398.29h-7v-9.17h7V-412c0-10,4.76-14.7,15.92-14.7a38.94,38.94,0,0,1,6.5.53v8.44A28.1,28.1,0,0,0,1.47-418c-4.61,0-6.7,2.18-6.7,6.36v4.22H5.06v9.17H-5v42.12H-17.11v-42.12Z" transform="translate(98.87 624.93)"/><path class="cls-1" d="M56.59-371.56c-1.55,9.7-10.58,16.4-22.76,16.4-15.43,0-24.75-10.14-24.75-26.54s9.41-27,24.26-27c14.61,0,23.73,10.14,23.73,25.77V-379h-36v0.73c0,8.25,5,13.78,13,13.78,5.63,0,9.9-2.81,11.21-7.08H56.59ZM21.22-386.94h24c-0.24-7.28-4.9-12.37-11.84-12.37S21.7-394.12,21.22-386.94Z" transform="translate(98.87 624.93)"/><path class="cls-1" d="M-95.31-277.6v-33.12h5.14v33.12h-5.14Z" transform="translate(98.87 624.93)"/><path class="cls-1" d="M-84.66-301.74h4.73v4.06h0.11A7.14,7.14,0,0,1-73-302.16a6.62,6.62,0,0,1,6.75,4.73h0.11a7.88,7.88,0,0,1,7.53-4.73c4.77,0,7.89,3.17,7.89,8v16.59h-5V-293c0-3.12-1.68-4.91-4.61-4.91a4.9,4.9,0,0,0-5,5.23v15.08h-4.87v-15.77a4.25,4.25,0,0,0-4.57-4.54c-2.94,0-5,2.29-5,5.39v14.92h-5v-24.14Z" transform="translate(98.87 624.93)"/><path class="cls-1" d="M-45.9-301.74h4.73v4.06h0.11a7.14,7.14,0,0,1,6.86-4.48,6.62,6.62,0,0,1,6.75,4.73h0.11a7.88,7.88,0,0,1,7.53-4.73c4.77,0,7.89,3.17,7.89,8v16.59h-5V-293c0-3.12-1.68-4.91-4.61-4.91a4.9,4.9,0,0,0-5,5.23v15.08h-4.87v-15.77a4.25,4.25,0,0,0-4.57-4.54c-2.94,0-5,2.29-5,5.39v14.92h-5v-24.14Z" transform="translate(98.87 624.93)"/><path class="cls-1" d="M13.57-284.69c-0.69,4.41-4.87,7.55-10.4,7.55-7.09,0-11.38-4.8-11.38-12.42S-3.85-302.18,3-302.18s10.88,4.73,10.88,12v1.7H-3.21v0.3c0,4.2,2.52,7,6.49,7,2.82,0,4.91-1.42,5.58-3.54h4.7ZM-3.18-291.9H8.89c-0.11-3.7-2.46-6.29-5.92-6.29S-2.93-295.55-3.18-291.9Z" transform="translate(98.87 624.93)"/><path class="cls-1" d="M17.68-301.74h4.73v4.11h0.11a5.82,5.82,0,0,1,5.81-4.5A9.09,9.09,0,0,1,30-302v4.61a7.11,7.11,0,0,0-2.23-.28c-3.19,0-5.16,2.13-5.16,5.55v14.46h-5v-24.14Z" transform="translate(98.87 624.93)"/><path class="cls-1" d="M42-302.18c5.62,0,9.27,3.12,9.43,7.57H46.76c-0.28-2.34-2-3.81-4.77-3.81s-4.48,1.31-4.48,3.24c0,1.51,1.1,2.55,3.72,3.14l3.92,0.9C50.09-290,52-288.07,52-284.58c0,4.41-4.11,7.44-9.8,7.44-6,0-9.66-3-10.12-7.55H37c0.46,2.53,2.18,3.76,5.21,3.76S47-282.17,47-284.14c0-1.56-.9-2.48-3.53-3.07l-3.92-.92c-4.59-1.06-6.86-3.26-6.86-6.77C32.67-299.22,36.43-302.18,42-302.18Z" transform="translate(98.87 624.93)"/><path class="cls-1" d="M55.57-308.49a2.85,2.85,0,0,1,2.87-2.85,2.83,2.83,0,0,1,2.85,2.85,2.85,2.85,0,0,1-2.85,2.85A2.86,2.86,0,0,1,55.57-308.49ZM56-301.74h5v24.14H56v-24.14Z" transform="translate(98.87 624.93)"/><path class="cls-1" d="M78-277.6H72.63l-8.7-24.14h5.28l6.06,19.3h0.09l6.06-19.3H86.6Z" transform="translate(98.87 624.93)"/><path class="cls-1" d="M109.46-284.69c-0.69,4.41-4.87,7.55-10.4,7.55-7.09,0-11.38-4.8-11.38-12.42S92-302.18,98.86-302.18s10.88,4.73,10.88,12v1.7H92.69v0.3c0,4.2,2.52,7,6.49,7,2.82,0,4.91-1.42,5.58-3.54h4.7ZM92.71-291.9h12.07c-0.11-3.7-2.46-6.29-5.92-6.29S93-295.55,92.71-291.9Z" transform="translate(98.87 624.93)"/><path class="cls-1" d="M127.21-286.69c0.46,3.28,3.58,5.26,8,5.26,4.2,0,7.21-2.16,7.21-5.12,0-2.57-1.74-4.18-6.17-5.14l-3.6-.76c-6.63-1.4-9.64-4.48-9.64-9.25,0-5.67,5-9.57,12-9.57s11.82,4,12,9.75h-5c-0.32-3.33-3.05-5.37-7.07-5.37s-6.72,1.88-6.72,4.91c0,2.41,1.7,4,6,4.93l3.63,0.76c6.93,1.47,9.78,4.25,9.78,9.07,0,6.24-4.91,10.17-12.62,10.17-7.48,0-12.46-3.74-12.78-9.64h5Z" transform="translate(98.87 624.93)"/><path class="cls-1" d="M158.05-307.46v5.71h4.59v3.92h-4.59v13.31c0,2.09.92,3,2.94,3a10.79,10.79,0,0,0,1.63-.11v3.92a13.74,13.74,0,0,1-2.75.23c-4.89,0-6.79-1.86-6.79-6.52v-13.86h-3.51v-3.92h3.51v-5.71h5Z" transform="translate(98.87 624.93)"/><path class="cls-1" d="M187.41-277.6h-4.75v-4.08h-0.11c-1.33,2.89-3.79,4.52-7.48,4.52-5.26,0-8.47-3.42-8.47-8.95v-15.63h5v14.66c0,3.67,1.74,5.65,5.16,5.65,3.58,0,5.74-2.48,5.74-6.24v-14.07h5v24.14Z" transform="translate(98.87 624.93)"/><path class="cls-1" d="M191.22-289.67c0-7.62,4-12.46,10.1-12.46a8.23,8.23,0,0,1,7.57,4.41H209v-13h5v33.12h-4.82v-4.11h-0.09a8.36,8.36,0,0,1-7.69,4.52C195.26-277.19,191.22-282.05,191.22-289.67Zm5.07,0c0,5.09,2.46,8.28,6.38,8.28s6.36-3.24,6.36-8.28-2.55-8.28-6.36-8.28S196.29-294.74,196.29-289.67Z" transform="translate(98.87 624.93)"/><path class="cls-1" d="M218.81-308.49a2.85,2.85,0,0,1,2.87-2.85,2.83,2.83,0,0,1,2.85,2.85,2.85,2.85,0,0,1-2.85,2.85A2.86,2.86,0,0,1,218.81-308.49Zm0.39,6.75h5v24.14h-5v-24.14Z" transform="translate(98.87 624.93)"/><path class="cls-1" d="M228.15-289.67c0-7.76,4.57-12.51,11.45-12.51s11.45,4.75,11.45,12.51-4.54,12.53-11.45,12.53S228.15-281.89,228.15-289.67Zm17.85,0c0-5.35-2.52-8.42-6.4-8.42s-6.4,3.08-6.4,8.42,2.52,8.45,6.4,8.45S246-284.3,246-289.67Z" transform="translate(98.87 624.93)"/></svg>