<svg xmlns="http://www.w3.org/2000/svg" viewBox="0 0 610.34 48.03"><title>Asset 2</title><g id="Layer_2" data-name="Layer 2"><g id="Layer_1-2" data-name="Layer 1"><path d="M0,48V0H21.39c8.35,0,13.46,5,13.46,12.24a10.92,10.92,0,0,1-8.42,11c5.11.79,9.36,6,9.36,11.81,0,7.7-5.12,13-13.9,13ZM28.66,13.11c0-4.32-2.88-7.78-8.28-7.78H6V20.81h14.4C25.78,20.81,28.66,17.5,28.66,13.11Zm.93,21.31c0-4.39-3-8.28-8.85-8.28H6V42.7H20.74C26.28,42.7,29.59,39.53,29.59,34.42Z"/><path d="M45.65,48V0H77.11V5.33H51.62V20.81h25v5.33h-25V42.7H77.11V48Z"/><path d="M98.86,48V5.33H83.66V0H120.1V5.33H104.83V48Z"/><path d="M140.25,48V5.33H125.06V0H161.5V5.33H146.23V48Z"/><path d="M169.77,48V0h31.47V5.33H175.75V20.81h25v5.33h-25V42.7h25.49V48Z"/><path d="M238.89,48,226.73,29h-9.65V48h-6V0h19.3c8.78,0,15.12,5.62,15.12,14.47,0,8.64-6,13.4-12.53,14L246,48Zm.44-33.56c0-5.47-4-9.14-9.65-9.14h-12.6V23.69h12.6C235.37,23.69,239.33,19.87,239.33,14.47Z"/><path d="M286.2,48V5.33H271V0h36.44V5.33H292.17V48Z"/><path d="M349.77,48V26H321.69V48h-6V0h6V20.67h28.08V0h6V48Z"/><path d="M401.61,48,397.36,37.3h-23.9L369.21,48h-6.84L381.74,0h7.42l19.29,48ZM385.41,6.12,375.26,32h20.38Z"/><path d="M449.06,48l-28-38.31V48h-6V0h6.12l27.65,37.52V0h6V48Z"/><path d="M484.62,48V0h6V42.7h22.32V48Z"/><path d="M521.27,48V0h6V48Z"/><path d="M538.84,48V0h31.47V5.33H544.82V20.81h25v5.33h-25V48Z"/><path d="M578.87,48V0h31.47V5.33H584.85V20.81h25v5.33h-25V42.7h25.49V48Z"/></g></g></svg>