<svg xmlns="http://www.w3.org/2000/svg" viewBox="0 0 623.16 48.03"><title>Asset 2</title><g id="Layer_2" data-name="Layer 2"><g id="Layer_1-2" data-name="Layer 1"><path d="M0,48V0H23.62C32.48,0,37.3,5.47,37.3,12.24c0,6-3.89,10.08-8.35,11,5.18.79,9.29,5.9,9.29,11.74,0,7.48-4.9,13-14,13ZM28.66,13.61c0-3.53-2.45-6.19-6.7-6.19H8.42V19.8H22C26.21,19.8,28.66,17.28,28.66,13.61Zm.93,20.31c0-3.61-2.52-6.7-7.27-6.7H8.42V40.61h13.9C26.86,40.61,29.59,38.09,29.59,33.92Z"/><path d="M47.09,48V0H80V7.42H55.51V19.8h24v7.42h-24V40.61H80V48Z"/><path d="M100.44,48V7.42H85.89V0h37.52V7.42H108.86V48Z"/><path d="M142.34,48V7.42H127.8V0h37.51V7.42H150.77V48Z"/><path d="M172.8,48V0h32.91V7.42H181.22V19.8h24v7.42h-24V40.61h24.49V48Z"/><path d="M242.14,48,231.55,30.1h-8.42V48H214.7V0h21.1c9.5,0,15.77,6.12,15.77,15.05,0,8.5-5.62,13.18-11.45,14.11L251.93,48Zm.79-33c0-4.61-3.46-7.56-8.21-7.56H223.13V22.68h11.59C239.47,22.68,242.93,19.66,242.93,15Z"/><path d="M290.74,48V7.42H276.19V0h37.52V7.42H299.16V48Z"/><path d="M354.6,48V27h-25V48h-8.42V0h8.42V19.59h25V0H363V48Z"/><path d="M407.3,48l-3.52-9.29h-22L378.21,48h-9.57L387.5,0H398l18.86,48ZM392.76,8.42l-8.64,22.9H401.4Z"/><path d="M455.9,48l-25-34.35V48h-8.43V0h8.64l24.56,33.27V0H464V48Z"/><path d="M493,48V0h8.42V40.61h21.17V48Z"/><path d="M530.35,48V0h8.42V48Z"/><path d="M549.35,48V0h32.91V7.42H557.78V19.8h24v7.42h-24V48Z"/><path d="M590.25,48V0h32.91V7.42H598.67V19.8h24v7.42h-24V40.61h24.49V48Z"/></g></g></svg>