<svg xmlns="http://www.w3.org/2000/svg" viewBox="0 0 366.04 349.01"><defs><style>.cls-1{fill:#fff;}</style></defs><title>logo_without_black</title><g id="Layer_2" data-name="Layer 2"><g id="Layer_1-2" data-name="Layer 1"><path class="cls-1" d="M6.76,0H41.24q9.54,0,15.3,4.37T62.3,17.59a15.84,15.84,0,0,1-2.63,9.19,17,17,0,0,1-7.5,5.91v.2A15.51,15.51,0,0,1,62.1,39.1a20.49,20.49,0,0,1,3.38,12.07A20.23,20.23,0,0,1,64,59a15.85,15.85,0,0,1-4.67,6.25,23.5,23.5,0,0,1-8.15,4.18A40,40,0,0,1,39.35,71H6.76ZM19.18,29.71H39.45a11.1,11.1,0,0,0,7.45-2.53q3-2.54,3-7.31,0-5.35-2.68-7.55t-7.75-2.18H19.18Zm0,31.1h22c3.77,0,6.71-1,8.79-2.93s3.13-4.72,3.13-8.3-1-6.21-3.13-8.09-5-2.84-8.79-2.84h-22Z"/><path class="cls-1" d="M84,48.19A19.89,19.89,0,0,0,84.81,54a14.38,14.38,0,0,0,2.53,4.87,12.1,12.1,0,0,0,4.28,3.32,14,14,0,0,0,6.16,1.25,13.57,13.57,0,0,0,8-2.14,12.64,12.64,0,0,0,4.52-6.41H121a21.32,21.32,0,0,1-8.35,13,22.64,22.64,0,0,1-6.9,3.38,27.88,27.88,0,0,1-8,1.14,27.09,27.09,0,0,1-10.73-2,22.09,22.09,0,0,1-7.9-5.56,23.47,23.47,0,0,1-4.87-8.55,34.48,34.48,0,0,1-1.64-10.93,30.9,30.9,0,0,1,1.74-10.38,26.52,26.52,0,0,1,5-8.65,23.93,23.93,0,0,1,7.81-5.91,23.59,23.59,0,0,1,10.33-2.19,23,23,0,0,1,10.88,2.54,23.84,23.84,0,0,1,8,6.71A27.09,27.09,0,0,1,121,37a29.5,29.5,0,0,1,.75,11.18Zm26.43-7.45a18.55,18.55,0,0,0-1.15-5.17,13.94,13.94,0,0,0-2.58-4.32,12.87,12.87,0,0,0-4-3,11.76,11.76,0,0,0-5.22-1.14,13.75,13.75,0,0,0-5.42,1,12.55,12.55,0,0,0-4.17,2.88,14.17,14.17,0,0,0-2.78,4.33A14.8,14.8,0,0,0,84,40.74Z"/><path class="cls-1" d="M125.2,19.58h8.55V4.17h11.33V19.58h10.23V28H145.08V55.45a27.19,27.19,0,0,0,.15,3.08,5.19,5.19,0,0,0,.69,2.18,3.31,3.31,0,0,0,1.64,1.35,8.25,8.25,0,0,0,3,.44c.8,0,1.59,0,2.39,0a11.5,11.5,0,0,0,2.38-.35v8.75l-3.68.4a33.72,33.72,0,0,1-3.67.2,25.2,25.2,0,0,1-7.21-.85,9.63,9.63,0,0,1-4.27-2.48A8.63,8.63,0,0,1,134.39,64a30.79,30.79,0,0,1-.64-5.66V28H125.2Z"/><path class="cls-1" d="M158.29,19.58h8.55V4.17h11.33V19.58H188.4V28H178.17V55.45a27.43,27.43,0,0,0,.14,3.08,5.34,5.34,0,0,0,.7,2.18,3.31,3.31,0,0,0,1.64,1.35,8.25,8.25,0,0,0,3,.44c.8,0,1.59,0,2.39,0a11.6,11.6,0,0,0,2.38-.35v8.75l-3.68.4a33.86,33.86,0,0,1-3.67.2,25.2,25.2,0,0,1-7.21-.85,9.63,9.63,0,0,1-4.27-2.48A8.63,8.63,0,0,1,167.48,64a30.79,30.79,0,0,1-.64-5.66V28h-8.55Z"/><path class="cls-1" d="M205.39,48.19a19.56,19.56,0,0,0,.85,5.77,14.2,14.2,0,0,0,2.53,4.87A12.16,12.16,0,0,0,213,62.15a14.07,14.07,0,0,0,6.16,1.25,13.55,13.55,0,0,0,8-2.14,12.59,12.59,0,0,0,4.52-6.41h10.74a21.32,21.32,0,0,1-8.35,13,22.8,22.8,0,0,1-6.91,3.38,27.83,27.83,0,0,1-8,1.14,27.09,27.09,0,0,1-10.73-2,22.18,22.18,0,0,1-7.9-5.56,23.76,23.76,0,0,1-4.87-8.55,34.77,34.77,0,0,1-1.64-10.93,30.9,30.9,0,0,1,1.74-10.38,26.73,26.73,0,0,1,5-8.65,23.34,23.34,0,0,1,18.14-8.1,23,23,0,0,1,10.88,2.54,23.93,23.93,0,0,1,8,6.71A27.43,27.43,0,0,1,242.41,37a29.5,29.5,0,0,1,.74,11.18Zm26.43-7.45a18.19,18.19,0,0,0-1.14-5.17,13.94,13.94,0,0,0-2.58-4.32,12.92,12.92,0,0,0-4-3,11.72,11.72,0,0,0-5.21-1.14,13.71,13.71,0,0,0-5.42,1,12.45,12.45,0,0,0-4.17,2.88,14.39,14.39,0,0,0-2.79,4.33,15.23,15.23,0,0,0-1.14,5.36Z"/><path class="cls-1" d="M251.8,19.58h10.63v9.93h.2a11.39,11.39,0,0,1,1.93-4.07A18.61,18.61,0,0,1,268,21.81a17.71,17.71,0,0,1,4.52-2.63,13.63,13.63,0,0,1,5.07-1,26,26,0,0,1,2.73.1l1.54.2V29.41c-.79-.13-1.6-.25-2.43-.34a20.31,20.31,0,0,0-2.43-.15,13,13,0,0,0-5.42,1.14,12.43,12.43,0,0,0-4.42,3.38,16.58,16.58,0,0,0-3,5.51,23.86,23.86,0,0,0-1.1,7.55V71H251.8Z"/><path class="cls-1" d="M0,99.37H57.43V110.1H34.88v60.22H22.46V110.1H0Z"/><path class="cls-1" d="M64.09,99.37H75.42V125.7h.2a16.42,16.42,0,0,1,6.21-5.81A18.29,18.29,0,0,1,91,117.55q8.45,0,13.31,4.37T109.2,135v35.28H97.88V138q-.21-6.06-2.59-8.79t-7.45-2.73a12.28,12.28,0,0,0-5.17,1,11.22,11.22,0,0,0-3.87,2.88,13.73,13.73,0,0,0-2.49,4.32,15.64,15.64,0,0,0-.89,5.27v30.31H64.09Z"/><path class="cls-1" d="M164.15,158.89a6,6,0,0,0,.55,3,2.3,2.3,0,0,0,2.14.89H168a7.58,7.58,0,0,0,1.59-.19v7.85c-.4.13-.91.28-1.54.44s-1.28.32-1.94.45-1.33.23-2,.3-1.22.1-1.69.1a11,11,0,0,1-5.76-1.39,6.93,6.93,0,0,1-3-4.87,20.16,20.16,0,0,1-8.3,4.77,32.79,32.79,0,0,1-9.49,1.49,23.14,23.14,0,0,1-6.65-1,17.29,17.29,0,0,1-5.62-2.78,13.28,13.28,0,0,1-3.87-4.67,14.28,14.28,0,0,1-1.45-6.61,15.26,15.26,0,0,1,1.74-7.75,13,13,0,0,1,4.57-4.67,20.66,20.66,0,0,1,6.36-2.43q3.53-.75,7.11-1.15c2-.39,4-.67,5.86-.84a27.57,27.57,0,0,0,4.92-.84,7.58,7.58,0,0,0,3.38-1.84,5.06,5.06,0,0,0,1.24-3.73,5.85,5.85,0,0,0-1-3.58,7,7,0,0,0-2.59-2.13,11.16,11.16,0,0,0-3.42-1,28.56,28.56,0,0,0-3.58-.24,14.26,14.26,0,0,0-7.85,2,7.73,7.73,0,0,0-3.48,6.16H120.23a17,17,0,0,1,2.39-8.24,16.5,16.5,0,0,1,5.31-5.27,21.91,21.91,0,0,1,7.31-2.78,43.43,43.43,0,0,1,8.34-.8,35.21,35.21,0,0,1,7.46.8,21.15,21.15,0,0,1,6.6,2.58,14.19,14.19,0,0,1,4.72,4.62,12.62,12.62,0,0,1,1.79,6.91Zm-11.32-14.31a13.75,13.75,0,0,1-6.36,2q-3.78.34-7.56,1a23.44,23.44,0,0,0-3.47.85,10.15,10.15,0,0,0-3,1.49,6.47,6.47,0,0,0-2,2.48,8.47,8.47,0,0,0-.75,3.73,4.75,4.75,0,0,0,1.1,3.18,7.72,7.72,0,0,0,2.63,2,12.13,12.13,0,0,0,3.38,1.05,20.65,20.65,0,0,0,3.33.29,18.53,18.53,0,0,0,4.07-.49,13.58,13.58,0,0,0,4.12-1.69,10.88,10.88,0,0,0,3.23-3,7.7,7.7,0,0,0,1.3-4.52Z"/><path class="cls-1" d="M176.38,118.94h10.73v7.56l.2.19a19,19,0,0,1,6.75-6.7,18,18,0,0,1,9.24-2.44q8.44,0,13.32,4.37T221.49,135v35.28H210.16V138q-.19-6.06-2.58-8.79t-7.46-2.73a12.2,12.2,0,0,0-5.16,1,11.16,11.16,0,0,0-3.88,2.88,13.52,13.52,0,0,0-2.48,4.32,15.4,15.4,0,0,0-.9,5.27v30.31H176.38Z"/><path class="cls-1" d="M6.76,198.73H19.18V259H55.25v10.73H6.76Z"/><path class="cls-1" d="M62.5,198.73H73.83v10.74H62.5Zm0,19.58H73.83v51.37H62.5Z"/><path class="cls-1" d="M81.08,218.31h8.45V214a22,22,0,0,1,1.19-7.9,11.3,11.3,0,0,1,3.18-4.67,10.48,10.48,0,0,1,4.52-2.19,25.45,25.45,0,0,1,5.32-.55,32.62,32.62,0,0,1,8,.7v8.84a17.68,17.68,0,0,0-2.34-.44,24.78,24.78,0,0,0-2.93-.15,6.88,6.88,0,0,0-3.92,1.09c-1.1.73-1.64,2.16-1.64,4.27v5.27h9.64v8.45h-9.64v42.92H89.53V226.76H81.08Z"/><path class="cls-1" d="M126.29,246.93a19.78,19.78,0,0,0,.85,5.76,14.2,14.2,0,0,0,2.53,4.87,12.24,12.24,0,0,0,4.28,3.33,14,14,0,0,0,6.16,1.24,13.67,13.67,0,0,0,8-2.13,12.69,12.69,0,0,0,4.52-6.41h10.73a21.26,21.26,0,0,1-8.35,13,22.75,22.75,0,0,1-6.9,3.38,27.93,27.93,0,0,1-8,1.14,27.32,27.32,0,0,1-10.74-2,22.29,22.29,0,0,1-7.9-5.57,23.55,23.55,0,0,1-4.86-8.54A34.52,34.52,0,0,1,115,244.05a30.92,30.92,0,0,1,1.74-10.39,26.37,26.37,0,0,1,5-8.64,23.34,23.34,0,0,1,18.14-8.1,23,23,0,0,1,10.88,2.53,24,24,0,0,1,8,6.71,27.13,27.13,0,0,1,4.62,9.59,29.29,29.29,0,0,1,.74,11.18Zm26.44-7.45a18.55,18.55,0,0,0-1.15-5.17A13.71,13.71,0,0,0,149,230a12.65,12.65,0,0,0-4-3,11.56,11.56,0,0,0-5.21-1.15,13.57,13.57,0,0,0-5.42,1,12.26,12.26,0,0,0-4.17,2.88,14.12,14.12,0,0,0-2.78,4.32,15.12,15.12,0,0,0-1.15,5.37Z"/><path class="cls-1" d="M10.36,314.69v33.57H5.9V314.69Z"/><path class="cls-1" d="M21,324v3.58h.1a8.83,8.83,0,0,1,7.85-4.14,8.8,8.8,0,0,1,4.09.94,5.26,5.26,0,0,1,2.58,3.2,8.51,8.51,0,0,1,3.22-3.06,9.1,9.1,0,0,1,4.4-1.08,12.56,12.56,0,0,1,3.31.4A6.79,6.79,0,0,1,49.07,325a5.66,5.66,0,0,1,1.65,2.18,8,8,0,0,1,.58,3.22v17.82h-4V332.32a11.66,11.66,0,0,0-.19-2.11,4.35,4.35,0,0,0-.71-1.72A3.51,3.51,0,0,0,45,327.34a5.72,5.72,0,0,0-2.37-.42A6.29,6.29,0,0,0,38,328.61a6.13,6.13,0,0,0-1.69,4.51v15.14h-4V332.32a9.75,9.75,0,0,0-.22-2.16,4.68,4.68,0,0,0-.72-1.72,3.42,3.42,0,0,0-1.39-1.12,5.33,5.33,0,0,0-2.23-.4,6,6,0,0,0-3,.7,6.76,6.76,0,0,0-3.15,3.74,5.9,5.9,0,0,0-.35,1.76v15.14h-4V324Z"/><path class="cls-1" d="M61.08,324v3.58h.09a9.47,9.47,0,0,1,11.94-3.2,5.24,5.24,0,0,1,2.59,3.2,8.44,8.44,0,0,1,3.22-3.06,9.06,9.06,0,0,1,4.39-1.08,12.59,12.59,0,0,1,3.32.4A7,7,0,0,1,89.17,325a5.64,5.64,0,0,1,1.64,2.18,8,8,0,0,1,.59,3.22v17.82h-4V332.32a10.82,10.82,0,0,0-.19-2.11,4.34,4.34,0,0,0-.7-1.72,3.58,3.58,0,0,0-1.43-1.15,5.8,5.8,0,0,0-2.38-.42,6.28,6.28,0,0,0-4.65,1.69,6.09,6.09,0,0,0-1.69,4.51v15.14h-4V332.32a10.41,10.41,0,0,0-.21-2.16,4.53,4.53,0,0,0-.73-1.72A3.36,3.36,0,0,0,70,327.32a5.3,5.3,0,0,0-2.23-.4,5.94,5.94,0,0,0-3,.7,6.76,6.76,0,0,0-3.15,3.74,5.65,5.65,0,0,0-.36,1.76v15.14h-4V324Z"/><path class="cls-1" d="M114.62,346.71a11.09,11.09,0,0,1-6.86,2.06,12.45,12.45,0,0,1-5.06-.94,9.87,9.87,0,0,1-3.59-2.63,11.25,11.25,0,0,1-2.19-4A19.67,19.67,0,0,1,96.1,336a14.7,14.7,0,0,1,.84-5.07,12.22,12.22,0,0,1,2.38-4,10.75,10.75,0,0,1,3.62-2.63,11,11,0,0,1,4.58-.94,10,10,0,0,1,5.38,1.34,10.55,10.55,0,0,1,3.43,3.41,13.32,13.32,0,0,1,1.79,4.51,19.42,19.42,0,0,1,.4,4.65H100.33a9.51,9.51,0,0,0,.38,3,6.74,6.74,0,0,0,1.36,2.53,6.59,6.59,0,0,0,2.4,1.77,8.23,8.23,0,0,0,3.43.66,6.94,6.94,0,0,0,4.16-1.18,5.69,5.69,0,0,0,2.14-3.57h3.94A9.71,9.71,0,0,1,114.62,346.71Zm-1-15.61a6.81,6.81,0,0,0-1.45-2.19,7.21,7.21,0,0,0-7.71-1.45,6.36,6.36,0,0,0-2.14,1.48,6.82,6.82,0,0,0-1.41,2.18,8.14,8.14,0,0,0-.61,2.66h14A8.15,8.15,0,0,0,113.65,331.1Z"/><path class="cls-1" d="M126.28,324v5.13h.09a10.76,10.76,0,0,1,3.57-4.37,9,9,0,0,1,5.36-1.32v4.23a11.27,11.27,0,0,0-4.09.66,6.43,6.43,0,0,0-2.73,1.93,7.85,7.85,0,0,0-1.5,3.08,16.69,16.69,0,0,0-.47,4.15v10.82h-4V324Z"/><path class="cls-1" d="M141.36,342.83a4.28,4.28,0,0,0,1.48,1.45,6.58,6.58,0,0,0,2.07.78,11.64,11.64,0,0,0,2.38.24,13.79,13.79,0,0,0,2-.15,7.08,7.08,0,0,0,1.9-.51,3.59,3.59,0,0,0,1.44-1.11,3,3,0,0,0,.56-1.85,2.65,2.65,0,0,0-1.17-2.35,10,10,0,0,0-2.94-1.3c-1.18-.33-2.45-.62-3.83-.89a19.69,19.69,0,0,1-3.83-1.13,7.88,7.88,0,0,1-2.94-2,5.34,5.34,0,0,1-1.18-3.67,5.82,5.82,0,0,1,.83-3.15,6.64,6.64,0,0,1,2.11-2.14,9.68,9.68,0,0,1,2.92-1.22,13.21,13.21,0,0,1,3.22-.4,19.57,19.57,0,0,1,3.8.35,8.89,8.89,0,0,1,3.08,1.23,6.23,6.23,0,0,1,2.14,2.35,8.85,8.85,0,0,1,.94,3.69h-4a4,4,0,0,0-.62-1.95,3.91,3.91,0,0,0-1.31-1.25,6,6,0,0,0-1.76-.68,9.24,9.24,0,0,0-1.95-.21,11.12,11.12,0,0,0-1.81.14,6,6,0,0,0-1.67.49,3.45,3.45,0,0,0-1.23.94,2.39,2.39,0,0,0-.47,1.53,2.25,2.25,0,0,0,.73,1.71,5.85,5.85,0,0,0,1.86,1.13,15.62,15.62,0,0,0,2.54.75l2.82.64a28.94,28.94,0,0,1,2.94.8,9.62,9.62,0,0,1,2.53,1.24,6.07,6.07,0,0,1,1.79,1.95,5.81,5.81,0,0,1,.68,2.92,6.76,6.76,0,0,1-.91,3.66,7.22,7.22,0,0,1-2.4,2.36,10,10,0,0,1-3.34,1.24,19.36,19.36,0,0,1-3.69.35,17.14,17.14,0,0,1-3.85-.42A9.25,9.25,0,0,1,140,347a7,7,0,0,1-2.25-2.53,8.7,8.7,0,0,1-.94-3.84h4A4.56,4.56,0,0,0,141.36,342.83Z"/><path class="cls-1" d="M162.05,319.58v-4.89h4v4.89Zm4,4.37v24.31h-4V324Z"/><path class="cls-1" d="M178.92,348.26l-9-24.31h4.46l6.82,20.26h.09L187.9,324h4.18l-8.88,24.31Z"/><path class="cls-1" d="M213,346.71a11.07,11.07,0,0,1-6.86,2.06,12.4,12.4,0,0,1-5.05-.94,9.83,9.83,0,0,1-3.6-2.63,11.25,11.25,0,0,1-2.19-4,19.67,19.67,0,0,1-.82-5.13,14.46,14.46,0,0,1,.85-5.07,12,12,0,0,1,2.37-4,10.85,10.85,0,0,1,3.62-2.63,11,11,0,0,1,4.58-.94,10,10,0,0,1,5.39,1.34,10.64,10.64,0,0,1,3.43,3.41,13.51,13.51,0,0,1,1.78,4.51,18.92,18.92,0,0,1,.4,4.65H198.66a9.8,9.8,0,0,0,.38,3,6.68,6.68,0,0,0,3.76,4.3,8.23,8.23,0,0,0,3.43.66,6.94,6.94,0,0,0,4.16-1.18,5.69,5.69,0,0,0,2.14-3.57h3.95A9.76,9.76,0,0,1,213,346.71Zm-1-15.61a6.8,6.8,0,0,0-6.37-4.18,7,7,0,0,0-2.8.54,6.46,6.46,0,0,0-2.14,1.48,7.18,7.18,0,0,0-1.41,2.18,8.4,8.4,0,0,0-.61,2.66h14A8.14,8.14,0,0,0,212,331.1Z"/><path class="cls-1" d="M251.52,319.28a9.48,9.48,0,0,0-5.71-1.62,13.59,13.59,0,0,0-2.78.28,7.5,7.5,0,0,0-2.42.94,4.92,4.92,0,0,0-1.69,1.76,5.48,5.48,0,0,0-.63,2.75,3.53,3.53,0,0,0,.91,2.52,6.86,6.86,0,0,0,2.45,1.57,19.85,19.85,0,0,0,3.45,1q1.93.4,3.93.87c1.33.31,2.64.68,3.92,1.11a12.85,12.85,0,0,1,3.46,1.71,8.1,8.1,0,0,1,2.44,2.73,9.54,9.54,0,0,1-.28,8.72,9.91,9.91,0,0,1-3.08,3.1,13.27,13.27,0,0,1-4.21,1.74,20.39,20.39,0,0,1-4.63.54,19.66,19.66,0,0,1-5.33-.71,13.08,13.08,0,0,1-4.42-2.14,10.09,10.09,0,0,1-3-3.66,11.89,11.89,0,0,1-1.1-5.29H237a7.31,7.31,0,0,0,3,6.16,9.1,9.1,0,0,0,3.13,1.45,14,14,0,0,0,3.66.48,16.55,16.55,0,0,0,3-.29,9.23,9.23,0,0,0,2.75-1,5.4,5.4,0,0,0,2-1.86,5.48,5.48,0,0,0,.75-3,4.23,4.23,0,0,0-.91-2.82,6.81,6.81,0,0,0-2.45-1.76,18.16,18.16,0,0,0-3.45-1.1l-3.93-.87c-1.33-.3-2.64-.65-3.92-1a14.21,14.21,0,0,1-3.46-1.55,7,7,0,0,1-3.36-6.32,8.69,8.69,0,0,1,3.79-7.45,12.44,12.44,0,0,1,3.9-1.79,17.23,17.23,0,0,1,4.49-.58,17.8,17.8,0,0,1,4.79.61,10.86,10.86,0,0,1,3.88,1.92,9.35,9.35,0,0,1,2.63,3.32,11.81,11.81,0,0,1,1.06,4.77h-4.23A7,7,0,0,0,251.52,319.28Z"/><path class="cls-1" d="M274.9,324v3.53h-4.84v15.09a4.33,4.33,0,0,0,.12,1.13,1.14,1.14,0,0,0,.45.65,2,2,0,0,0,.91.31,12.67,12.67,0,0,0,1.53.07h1.83v3.53h-3a13.58,13.58,0,0,1-2.66-.22,3.83,3.83,0,0,1-1.78-.77,3.23,3.23,0,0,1-1-1.6,9.23,9.23,0,0,1-.33-2.73V327.48h-4.14V324h4.14v-7.28h4V324Z"/><path class="cls-1" d="M295.68,348.26V344.4h-.09a8.19,8.19,0,0,1-3.25,3.32,9.76,9.76,0,0,1-4.65,1,11,11,0,0,1-4-.63,6.41,6.41,0,0,1-2.58-1.81,6.84,6.84,0,0,1-1.39-2.8,15.35,15.35,0,0,1-.4-3.59V324h4v16.46a4.54,4.54,0,0,0,4.93,4.89,8.14,8.14,0,0,0,3.18-.57,6,6,0,0,0,2.23-1.6,7,7,0,0,0,1.34-2.42,9.73,9.73,0,0,0,.44-3V324h4v24.31Z"/><path class="cls-1" d="M323.18,348.26V345h-.1a5.85,5.85,0,0,1-3.1,2.91,11.75,11.75,0,0,1-4.65.89,10.93,10.93,0,0,1-4.91-1,10,10,0,0,1-3.48-2.77,12,12,0,0,1-2.09-4.05,16.57,16.57,0,0,1-.71-4.89,17.23,17.23,0,0,1,.68-4.88,11.61,11.61,0,0,1,2.07-4,9.91,9.91,0,0,1,3.48-2.73,11.07,11.07,0,0,1,4.86-1,11.35,11.35,0,0,1,2,.19,10.28,10.28,0,0,1,2.17.63,9.09,9.09,0,0,1,2,1.18,6.42,6.42,0,0,1,1.62,1.81h.1V314.69h4v33.57Zm-14.36-8.63a9,9,0,0,0,1.36,2.89,6.58,6.58,0,0,0,2.35,2,7.18,7.18,0,0,0,3.36.76,6.88,6.88,0,0,0,3.43-.8,7,7,0,0,0,2.31-2.1,8.93,8.93,0,0,0,1.29-2.93,14.46,14.46,0,0,0,.4-3.34,14.19,14.19,0,0,0-.42-3.46,8.65,8.65,0,0,0-1.34-2.93,7,7,0,0,0-2.38-2.05,7.35,7.35,0,0,0-3.52-.77,6.77,6.77,0,0,0-3.43.8,6.28,6.28,0,0,0-2.26,2.11,9.29,9.29,0,0,0-1.22,3,16.06,16.06,0,0,0-.38,3.48A12.35,12.35,0,0,0,308.82,339.63Z"/><path class="cls-1" d="M333.56,319.58v-4.89h4v4.89Zm4,4.37v24.31h-4V324Z"/><path class="cls-1" d="M343.2,331.12a11.27,11.27,0,0,1,2.26-4,10.68,10.68,0,0,1,3.71-2.7,13.58,13.58,0,0,1,10.18,0,10.89,10.89,0,0,1,3.69,2.7,11.4,11.4,0,0,1,2.25,4,16.23,16.23,0,0,1,.75,5,16,16,0,0,1-.75,5,11.31,11.31,0,0,1-2.25,4,10.58,10.58,0,0,1-3.69,2.68,14,14,0,0,1-10.18,0,10.39,10.39,0,0,1-3.71-2.68,11.18,11.18,0,0,1-2.26-4,16,16,0,0,1-.75-5A16.23,16.23,0,0,1,343.2,331.12Zm4.07,8.93a8.15,8.15,0,0,0,1.62,2.87,6.86,6.86,0,0,0,2.42,1.76,7.26,7.26,0,0,0,5.87,0,6.77,6.77,0,0,0,2.42-1.76,8.32,8.32,0,0,0,1.63-2.87,13.57,13.57,0,0,0,0-7.85,8.71,8.71,0,0,0-1.63-2.89,6.83,6.83,0,0,0-2.42-1.78,7.37,7.37,0,0,0-5.87,0,6.92,6.92,0,0,0-2.42,1.78,8.52,8.52,0,0,0-1.62,2.89,13.35,13.35,0,0,0,0,7.85Z"/></g></g></svg>