<svg xmlns="http://www.w3.org/2000/svg" viewBox="0 0 141.8 11.06"><defs><style>.cls-1{fill:#fff;}</style></defs><g id="Layer_2" data-name="Layer 2"><g id="Layer_1-2" data-name="Layer 1"><path class="cls-1" d="M0,2.57H1.3v.84h0a1.72,1.72,0,0,1,.8-.78A2.8,2.8,0,0,1,3.24,2.4a3,3,0,0,1,1.28.26,2.52,2.52,0,0,1,.9.71,3.08,3.08,0,0,1,.54,1A4.4,4.4,0,0,1,6.14,5.7,4.42,4.42,0,0,1,6,6.91a3.22,3.22,0,0,1-.49,1,2.5,2.5,0,0,1-.83.72,2.52,2.52,0,0,1-1.19.27,4,4,0,0,1-.6,0,3,3,0,0,1-.58-.18,2.62,2.62,0,0,1-.51-.3A2.05,2.05,0,0,1,1.39,8h0v3.09H0ZM4.78,5.68a3.18,3.18,0,0,0-.11-.82,2.06,2.06,0,0,0-.33-.7,1.49,1.49,0,0,0-.54-.49,1.38,1.38,0,0,0-.74-.19,1.5,1.5,0,0,0-1.3.6,2.66,2.66,0,0,0-.44,1.6,3.45,3.45,0,0,0,.11.87,2,2,0,0,0,.35.69,1.67,1.67,0,0,0,.54.45,1.58,1.58,0,0,0,.74.17,1.49,1.49,0,0,0,.79-.19,1.73,1.73,0,0,0,.54-.5,2,2,0,0,0,.3-.7A3.48,3.48,0,0,0,4.78,5.68Z"/><path class="cls-1" d="M10.14,8.94a3.29,3.29,0,0,1-1.33-.25,2.94,2.94,0,0,1-1-.67,2.92,2.92,0,0,1-.61-1A4,4,0,0,1,7,5.66a3.9,3.9,0,0,1,.21-1.3,2.92,2.92,0,0,1,.61-1,2.94,2.94,0,0,1,1-.67,3.29,3.29,0,0,1,1.33-.25,3.29,3.29,0,0,1,1.33.25,2.94,2.94,0,0,1,1,.67,2.92,2.92,0,0,1,.61,1,3.9,3.9,0,0,1,.21,1.3A4,4,0,0,1,13.06,7a2.92,2.92,0,0,1-.61,1,2.94,2.94,0,0,1-1,.67A3.29,3.29,0,0,1,10.14,8.94Zm0-1.08a1.54,1.54,0,0,0,.79-.19,1.59,1.59,0,0,0,.55-.51,2,2,0,0,0,.32-.7,3,3,0,0,0,.1-.8,3.11,3.11,0,0,0-.1-.79,2,2,0,0,0-.32-.7,1.66,1.66,0,0,0-.55-.5,1.74,1.74,0,0,0-1.58,0,1.66,1.66,0,0,0-.55.5,2,2,0,0,0-.32.7,3.11,3.11,0,0,0-.1.79,3,3,0,0,0,.1.8,2,2,0,0,0,.32.7,1.59,1.59,0,0,0,.55.51A1.54,1.54,0,0,0,10.14,7.86Z"/><path class="cls-1" d="M14.41,2.57H15.7v1.2h0A1.46,1.46,0,0,1,16,3.28a2.49,2.49,0,0,1,.42-.44,2.33,2.33,0,0,1,.55-.32,1.62,1.62,0,0,1,.61-.12h.33l.19,0V3.76l-.3,0h-.29a1.57,1.57,0,0,0-.65.13,1.55,1.55,0,0,0-.54.41,2,2,0,0,0-.36.67,2.82,2.82,0,0,0-.13.91V8.77H14.41Z"/><path class="cls-1" d="M18,2.57h1V.71h1.37V2.57h1.24v1H20.41V6.9c0,.14,0,.27,0,.37a.71.71,0,0,0,.08.27.46.46,0,0,0,.2.16,1.15,1.15,0,0,0,.36,0h.29a1.47,1.47,0,0,0,.29,0V8.76l-.45.05-.44,0a3,3,0,0,1-.87-.1,1.25,1.25,0,0,1-.52-.3,1.12,1.12,0,0,1-.25-.5A4.38,4.38,0,0,1,19,7.25V3.59H18Z"/><path class="cls-1" d="M22,2.57h1V2.05a2.76,2.76,0,0,1,.14-.95,1.44,1.44,0,0,1,.39-.57,1.23,1.23,0,0,1,.54-.26A3.41,3.41,0,0,1,24.76.2a3.66,3.66,0,0,1,1,.09V1.36a1.36,1.36,0,0,0-.29-.06l-.35,0a.82.82,0,0,0-.47.14c-.14.08-.2.26-.2.51v.64h1.16v1H24.41V8.77H23V3.59H22Z"/><path class="cls-1" d="M29.26,8.94a3.29,3.29,0,0,1-1.33-.25A2.76,2.76,0,0,1,27,8a2.94,2.94,0,0,1-.62-1,4,4,0,0,1-.21-1.32,3.9,3.9,0,0,1,.21-1.3,2.94,2.94,0,0,1,.62-1,2.76,2.76,0,0,1,1-.67,3.64,3.64,0,0,1,2.65,0,2.89,2.89,0,0,1,1,.67,3.07,3.07,0,0,1,.61,1,3.9,3.9,0,0,1,.21,1.3A4,4,0,0,1,32.18,7a3.07,3.07,0,0,1-.61,1,2.89,2.89,0,0,1-1,.67A3.27,3.27,0,0,1,29.26,8.94Zm0-1.08a1.57,1.57,0,0,0,.79-.19,1.68,1.68,0,0,0,.55-.51,2.24,2.24,0,0,0,.32-.7,3,3,0,0,0,.1-.8,3.11,3.11,0,0,0-.1-.79,2.24,2.24,0,0,0-.32-.7,1.76,1.76,0,0,0-.55-.5,1.76,1.76,0,0,0-1.59,0,1.88,1.88,0,0,0-.55.5,2.24,2.24,0,0,0-.32.7,3.64,3.64,0,0,0-.1.79,3.5,3.5,0,0,0,.1.8,2.24,2.24,0,0,0,.32.7,1.78,1.78,0,0,0,.55.51A1.58,1.58,0,0,0,29.26,7.86Z"/><path class="cls-1" d="M33.56.2h1.37V8.77H33.56Z"/><path class="cls-1" d="M36.46.2h1.36V1.5H36.46Zm0,2.37h1.36v6.2H36.46Z"/><path class="cls-1" d="M42.16,8.94a3.29,3.29,0,0,1-1.33-.25,2.76,2.76,0,0,1-1-.67,2.94,2.94,0,0,1-.62-1A4,4,0,0,1,39,5.66a3.9,3.9,0,0,1,.21-1.3,2.94,2.94,0,0,1,.62-1,2.76,2.76,0,0,1,1-.67,3.64,3.64,0,0,1,2.65,0,2.89,2.89,0,0,1,1,.67,3.07,3.07,0,0,1,.61,1,3.9,3.9,0,0,1,.21,1.3A4,4,0,0,1,45.08,7a3.07,3.07,0,0,1-.61,1,2.89,2.89,0,0,1-1,.67A3.27,3.27,0,0,1,42.16,8.94Zm0-1.08A1.57,1.57,0,0,0,43,7.67a1.68,1.68,0,0,0,.55-.51,2.24,2.24,0,0,0,.32-.7,3,3,0,0,0,.1-.8,3.11,3.11,0,0,0-.1-.79,2.24,2.24,0,0,0-.32-.7,1.76,1.76,0,0,0-.55-.5,1.76,1.76,0,0,0-1.59,0,1.88,1.88,0,0,0-.55.5,2.24,2.24,0,0,0-.32.7,3.64,3.64,0,0,0-.1.79,3.5,3.5,0,0,0,.1.8,2.24,2.24,0,0,0,.32.7,1.78,1.78,0,0,0,.55.51A1.58,1.58,0,0,0,42.16,7.86Z"/><path class="cls-1" d="M52.22,5.42c0,.1,0,.2-.07.29a1.39,1.39,0,0,0,0,.27.29.29,0,0,0,.05.19.18.18,0,0,0,.17.08.92.92,0,0,0,.56-.2,1.9,1.9,0,0,0,.51-.54,3.89,3.89,0,0,0,.36-.82,3.77,3.77,0,0,0,.13-1,2.79,2.79,0,0,0-.25-1.21,2.78,2.78,0,0,0-.69-.9,3,3,0,0,0-1-.57A3.88,3.88,0,0,0,50.7.78a3.29,3.29,0,0,0-2.48,1.05A3.33,3.33,0,0,0,47.51,3a3.88,3.88,0,0,0-.25,1.41A4.4,4.4,0,0,0,47.53,6a3.33,3.33,0,0,0,1.87,2,3.74,3.74,0,0,0,2.91,0A3.37,3.37,0,0,0,53.51,7h.84a4,4,0,0,1-1.53,1.45A4.29,4.29,0,0,1,50.76,9,4.4,4.4,0,0,1,49,8.63a4.17,4.17,0,0,1-1.42-1,4.58,4.58,0,0,1-1-1.46,5,5,0,0,1-.34-1.89,4,4,0,0,1,.35-1.7,4.55,4.55,0,0,1,1-1.37A4.42,4.42,0,0,1,49,.34,4.23,4.23,0,0,1,50.7,0a4.55,4.55,0,0,1,1.53.26A4.12,4.12,0,0,1,53.51,1a3.67,3.67,0,0,1,.88,1.12,3.06,3.06,0,0,1,.33,1.42,3.67,3.67,0,0,1-.31,1.57,3.65,3.65,0,0,1-.74,1.11,3,3,0,0,1-.93.67,2.09,2.09,0,0,1-.85.22.68.68,0,0,1-.71-.69h0a2.44,2.44,0,0,1-.6.48,1.56,1.56,0,0,1-.75.2,1.58,1.58,0,0,1-.69-.15,1.66,1.66,0,0,1-.56-.41,1.84,1.84,0,0,1-.37-.6,2,2,0,0,1-.13-.72,3.35,3.35,0,0,1,.19-1.13,3.57,3.57,0,0,1,.54-1,2.67,2.67,0,0,1,.82-.71,2.22,2.22,0,0,1,1.08-.27,1.58,1.58,0,0,1,.77.2A1.56,1.56,0,0,1,52,3l.22-.68h.84ZM50,6.18A1.13,1.13,0,0,0,50.7,6a2.18,2.18,0,0,0,.52-.53,3.17,3.17,0,0,0,.34-.69A2.4,2.4,0,0,0,51.68,4a1.05,1.05,0,0,0-.07-.4,1.3,1.3,0,0,0-.21-.34.86.86,0,0,0-.3-.23A.9.9,0,0,0,50.74,3a1.23,1.23,0,0,0-.68.2,1.94,1.94,0,0,0-.52.51,2.41,2.41,0,0,0-.34.68,2.3,2.3,0,0,0-.12.71,1.17,1.17,0,0,0,.26.78A.84.84,0,0,0,50,6.18Z"/><path class="cls-1" d="M56.06.2h1.37V3.37h0A1.9,1.9,0,0,1,57.8,3a2.21,2.21,0,0,1,.45-.3,2,2,0,0,1,.52-.19,2,2,0,0,1,.53-.07,3,3,0,0,1,1.28.26,2.47,2.47,0,0,1,.91.71,3.08,3.08,0,0,1,.54,1,4.4,4.4,0,0,1,.18,1.28,4.84,4.84,0,0,1-.16,1.21,3.24,3.24,0,0,1-.5,1,2.41,2.41,0,0,1-.83.72,2.49,2.49,0,0,1-1.19.27,4.44,4.44,0,0,1-.63,0,2.41,2.41,0,0,1-.6-.16,2,2,0,0,1-.53-.32,1.55,1.55,0,0,1-.39-.5h0v.85h-1.3Zm4.78,5.48a3.18,3.18,0,0,0-.11-.82,2.24,2.24,0,0,0-.32-.7,1.68,1.68,0,0,0-.54-.49,1.44,1.44,0,0,0-.75-.19,1.51,1.51,0,0,0-1.3.6,2.66,2.66,0,0,0-.44,1.6,3,3,0,0,0,.12.87,2,2,0,0,0,.34.69,1.6,1.6,0,0,0,.55.45,1.72,1.72,0,0,0,1.53,0,1.81,1.81,0,0,0,.53-.5,2,2,0,0,0,.3-.7A3.48,3.48,0,0,0,60.84,5.68Z"/><path class="cls-1" d="M64.43,6a2.32,2.32,0,0,0,.1.7,1.75,1.75,0,0,0,.31.59,1.36,1.36,0,0,0,.51.4,1.73,1.73,0,0,0,.75.15,1.63,1.63,0,0,0,1-.26,1.49,1.49,0,0,0,.55-.77H68.9a2.56,2.56,0,0,1-.37.9,2.64,2.64,0,0,1-.63.66,2.74,2.74,0,0,1-.84.41,3.43,3.43,0,0,1-1,.14,3.31,3.31,0,0,1-1.3-.24A2.6,2.6,0,0,1,63.85,8a2.83,2.83,0,0,1-.59-1,4.25,4.25,0,0,1-.2-1.32,3.79,3.79,0,0,1,.21-1.26,3.25,3.25,0,0,1,.6-1,2.91,2.91,0,0,1,.94-.72,3,3,0,0,1,1.25-.26,2.67,2.67,0,0,1,1.31.31,2.83,2.83,0,0,1,1,.81,3.25,3.25,0,0,1,.56,1.15A3.82,3.82,0,0,1,69,6Zm3.19-.9a2.23,2.23,0,0,0-.14-.62A1.6,1.6,0,0,0,67.17,4a1.48,1.48,0,0,0-1.11-.5A1.64,1.64,0,0,0,64.9,4a1.69,1.69,0,0,0-.33.53,1.71,1.71,0,0,0-.14.64Z"/><path class="cls-1" d="M69.41,2.57h1V.71h1.37V2.57H73v1H71.81V6.9a2.06,2.06,0,0,0,0,.37.71.71,0,0,0,.08.27.41.41,0,0,0,.2.16,1.15,1.15,0,0,0,.36,0h.29a1.37,1.37,0,0,0,.28,0V8.76l-.44.05-.44,0a3,3,0,0,1-.87-.1,1.19,1.19,0,0,1-.52-.3,1,1,0,0,1-.25-.5,3.43,3.43,0,0,1-.08-.68V3.59h-1Z"/><path class="cls-1" d="M73.4,2.57h1V.71H75.8V2.57H77v1H75.8V6.9c0,.14,0,.27,0,.37a.58.58,0,0,0,.09.27.43.43,0,0,0,.19.16,1.15,1.15,0,0,0,.36,0h.29a1.47,1.47,0,0,0,.29,0V8.76l-.44.05-.45,0a3,3,0,0,1-.87-.1,1.15,1.15,0,0,1-.51-.3,1,1,0,0,1-.26-.5,3.47,3.47,0,0,1-.07-.68V3.59h-1Z"/><path class="cls-1" d="M79.09,6a2.69,2.69,0,0,0,.1.7,1.75,1.75,0,0,0,.31.59,1.48,1.48,0,0,0,.52.4,1.65,1.65,0,0,0,.74.15,1.68,1.68,0,0,0,1-.26,1.54,1.54,0,0,0,.54-.77h1.3a2.76,2.76,0,0,1-.37.9,2.68,2.68,0,0,1-.64.66,2.8,2.8,0,0,1-.83.41,3.45,3.45,0,0,1-1,.14,3.31,3.31,0,0,1-1.3-.24A2.69,2.69,0,0,1,78.51,8a2.83,2.83,0,0,1-.59-1,4.25,4.25,0,0,1-.2-1.32,3.79,3.79,0,0,1,.21-1.26,3.25,3.25,0,0,1,.6-1,3,3,0,0,1,1-.72,2.89,2.89,0,0,1,1.24-.26A2.74,2.74,0,0,1,82,2.71a2.7,2.7,0,0,1,1,.81,3.09,3.09,0,0,1,.56,1.15A3.41,3.41,0,0,1,83.65,6Zm3.19-.9a2.21,2.21,0,0,0-.13-.62A1.62,1.62,0,0,0,81.83,4a1.44,1.44,0,0,0-.48-.36,1.39,1.39,0,0,0-.63-.14,1.54,1.54,0,0,0-.65.13,1.48,1.48,0,0,0-.5.34,1.72,1.72,0,0,0-.34.53,1.93,1.93,0,0,0-.14.64Z"/><path class="cls-1" d="M84.7,2.57H86v1.2h0a1.31,1.31,0,0,1,.24-.49,1.93,1.93,0,0,1,.42-.44,2.08,2.08,0,0,1,.54-.32,1.67,1.67,0,0,1,.62-.12h.33l.18,0V3.76l-.29,0h-.3a1.57,1.57,0,0,0-.65.13,1.61,1.61,0,0,0-.53.41,1.72,1.72,0,0,0-.36.67,2.81,2.81,0,0,0-.14.91V8.77H84.7Z"/><path class="cls-1" d="M88.3,2.57h1V.71H90.7V2.57h1.23v1H90.7V6.9c0,.14,0,.27,0,.37a.72.72,0,0,0,.09.27.41.41,0,0,0,.2.16,1,1,0,0,0,.35,0h.29a1.35,1.35,0,0,0,.29,0V8.76l-.44.05-.45,0a3,3,0,0,1-.87-.1,1.15,1.15,0,0,1-.51-.3,1,1,0,0,1-.25-.5,2.82,2.82,0,0,1-.08-.68V3.59h-1Z"/><path class="cls-1" d="M92.92.2h1.36V3.38h0a2,2,0,0,1,.75-.7,2.18,2.18,0,0,1,1.11-.28,2.35,2.35,0,0,1,1.61.53,2,2,0,0,1,.58,1.58V8.77H97V4.87a1.65,1.65,0,0,0-.32-1.06,1.13,1.13,0,0,0-.9-.33,1.38,1.38,0,0,0-.62.13,1.45,1.45,0,0,0-.47.34,1.62,1.62,0,0,0-.3.53,1.9,1.9,0,0,0-.11.63V8.77H92.92Z"/><path class="cls-1" d="M105,7.39a.78.78,0,0,0,.06.36.29.29,0,0,0,.26.11h.15l.19,0v.94l-.19.06-.23.05-.24,0h-.21a1.31,1.31,0,0,1-.69-.17.83.83,0,0,1-.36-.59,2.38,2.38,0,0,1-1,.58,4,4,0,0,1-1.15.18,3,3,0,0,1-.8-.11,2.17,2.17,0,0,1-.68-.34,1.6,1.6,0,0,1-.64-1.36,1.84,1.84,0,0,1,.21-.94,1.48,1.48,0,0,1,.55-.56,2.38,2.38,0,0,1,.77-.3,8.32,8.32,0,0,1,.85-.13,6.86,6.86,0,0,1,.71-.11,3.26,3.26,0,0,0,.6-.1.91.91,0,0,0,.4-.22.57.57,0,0,0,.15-.45.71.71,0,0,0-.12-.43,1,1,0,0,0-.31-.26,1.45,1.45,0,0,0-.42-.12l-.43,0a1.74,1.74,0,0,0-1,.24.93.93,0,0,0-.42.74H99.69a2.07,2.07,0,0,1,.29-1,2,2,0,0,1,.64-.64,2.56,2.56,0,0,1,.89-.33,4.74,4.74,0,0,1,1-.1,3.94,3.94,0,0,1,.9.1,2.29,2.29,0,0,1,.79.31,1.61,1.61,0,0,1,.57.56,1.45,1.45,0,0,1,.22.83Zm-1.37-1.73a1.63,1.63,0,0,1-.77.25c-.3,0-.61.07-.91.13a2.13,2.13,0,0,0-.42.1,1.11,1.11,0,0,0-.36.18.75.75,0,0,0-.25.3,1.16,1.16,0,0,0-.09.45.56.56,0,0,0,.14.38.87.87,0,0,0,.32.25,1.25,1.25,0,0,0,.4.12,2.1,2.1,0,0,0,.41,0,2.25,2.25,0,0,0,.49-.06,1.74,1.74,0,0,0,.49-.2,1.41,1.41,0,0,0,.4-.37,1,1,0,0,0,.15-.55Z"/><path class="cls-1" d="M106.48,2.57h1.29v.91l0,0a2.35,2.35,0,0,1,.82-.81,2.25,2.25,0,0,1,1.12-.29,2.3,2.3,0,0,1,1.6.53,2,2,0,0,1,.59,1.58V8.77h-1.37V4.87a1.59,1.59,0,0,0-.31-1.06,1.13,1.13,0,0,0-.9-.33,1.38,1.38,0,0,0-.62.13,1.35,1.35,0,0,0-.47.34,1.62,1.62,0,0,0-.3.53,1.9,1.9,0,0,0-.11.63V8.77h-1.36Z"/><path class="cls-1" d="M113.4.2h1.37V8.77H113.4Z"/><path class="cls-1" d="M116.29.2h1.37V1.5h-1.37Zm0,2.37h1.37v6.2h-1.37Z"/><path class="cls-1" d="M118.53,2.57h1V2.05a2.52,2.52,0,0,1,.15-.95,1.33,1.33,0,0,1,.38-.57,1.22,1.22,0,0,1,.55-.26,3.3,3.3,0,0,1,.64-.07,3.66,3.66,0,0,1,1,.09V1.36A1.27,1.27,0,0,0,122,1.3l-.36,0a.82.82,0,0,0-.47.14.57.57,0,0,0-.2.51v.64h1.17v1h-1.17V8.77h-1.37V3.59h-1Z"/><path class="cls-1" d="M124,6a2.33,2.33,0,0,0,.11.7,1.73,1.73,0,0,0,.3.59,1.48,1.48,0,0,0,.52.4,1.92,1.92,0,0,0,1.71-.11,1.54,1.54,0,0,0,.54-.77h1.3a2.76,2.76,0,0,1-.37.9,2.71,2.71,0,0,1-1.47,1.07,3.45,3.45,0,0,1-1,.14,3.23,3.23,0,0,1-1.29-.24,2.64,2.64,0,0,1-1-.67,3,3,0,0,1-.59-1,4.25,4.25,0,0,1-.19-1.32,3.79,3.79,0,0,1,.21-1.26,3.25,3.25,0,0,1,.6-1,2.91,2.91,0,0,1,.94-.72,2.94,2.94,0,0,1,1.25-.26,2.72,2.72,0,0,1,1.31.31,2.83,2.83,0,0,1,1,.81,3.23,3.23,0,0,1,.55,1.15A3.41,3.41,0,0,1,128.55,6Zm3.2-.9a2.65,2.65,0,0,0-.14-.62,1.79,1.79,0,0,0-.31-.52,1.68,1.68,0,0,0-.48-.36,1.46,1.46,0,0,0-.63-.14,1.6,1.6,0,0,0-1.16.47A1.82,1.82,0,0,0,124,5.12Z"/><path class="cls-1" d="M129.71,7.15h1.66V8.77h-1.66Z"/><path class="cls-1" d="M133,.2h1.37V1.5H133Zm0,2.37h1.37v6.2H133Z"/><path class="cls-1" d="M138.67,8.94a3.29,3.29,0,0,1-1.33-.25,2.94,2.94,0,0,1-1-.67,2.92,2.92,0,0,1-.61-1,4,4,0,0,1-.21-1.32,3.9,3.9,0,0,1,.21-1.3,2.92,2.92,0,0,1,.61-1,2.94,2.94,0,0,1,1-.67,3.66,3.66,0,0,1,2.66,0,2.94,2.94,0,0,1,1,.67,2.92,2.92,0,0,1,.61,1,3.9,3.9,0,0,1,.21,1.3A4,4,0,0,1,141.59,7,2.92,2.92,0,0,1,141,8a2.94,2.94,0,0,1-1,.67A3.29,3.29,0,0,1,138.67,8.94Zm0-1.08a1.54,1.54,0,0,0,.79-.19,1.59,1.59,0,0,0,.55-.51,2,2,0,0,0,.32-.7,3,3,0,0,0,.1-.8,3.11,3.11,0,0,0-.1-.79,2,2,0,0,0-.32-.7,1.66,1.66,0,0,0-.55-.5,1.74,1.74,0,0,0-1.58,0,1.66,1.66,0,0,0-.55.5,2,2,0,0,0-.32.7,3.11,3.11,0,0,0-.1.79,3,3,0,0,0,.1.8,2,2,0,0,0,.32.7,1.59,1.59,0,0,0,.55.51A1.54,1.54,0,0,0,138.67,7.86Z"/></g></g></svg>